ISO-10303-21;
HEADER;
FILE_DESCRIPTION(('Open CASCADE Model'),'2;1');
FILE_NAME('Open CASCADE Shape Model','2026-06-20T10:49:37',('Author'),(
    'Open CASCADE'),'Open CASCADE STEP processor 7.9','Open CASCADE 7.9'
  ,'Unknown');
FILE_SCHEMA(('AUTOMOTIVE_DESIGN { 1 0 10303 214 1 1 1 1 }'));
ENDSEC;
DATA;
#1 = APPLICATION_PROTOCOL_DEFINITION('international standard',
  'automotive_design',2000,#2);
#2 = APPLICATION_CONTEXT(
  'core data for automotive mechanical design processes');
#3 = SHAPE_DEFINITION_REPRESENTATION(#4,#10);
#4 = PRODUCT_DEFINITION_SHAPE('','',#5);
#5 = PRODUCT_DEFINITION('design','',#6,#9);
#6 = PRODUCT_DEFINITION_FORMATION('','',#7);
#7 = PRODUCT('Open CASCADE STEP translator 7.9 1',
  'Open CASCADE STEP translator 7.9 1','',(#8));
#8 = PRODUCT_CONTEXT('',#2,'mechanical');
#9 = PRODUCT_DEFINITION_CONTEXT('part definition',#2,'design');
#10 = MANIFOLD_SURFACE_SHAPE_REPRESENTATION('',(#11,#15),#121);
#11 = AXIS2_PLACEMENT_3D('',#12,#13,#14);
#12 = CARTESIAN_POINT('',(0.,0.,0.));
#13 = DIRECTION('',(0.,0.,1.));
#14 = DIRECTION('',(1.,0.,-0.));
#15 = SHELL_BASED_SURFACE_MODEL('',(#16));
#16 = OPEN_SHELL('',(#17));
#17 = ADVANCED_FACE('',(#18),#31,.T.);
#18 = FACE_BOUND('',#19,.T.);
#19 = EDGE_LOOP('',(#20,#60,#84,#99));
#20 = ORIENTED_EDGE('',*,*,#21,.F.);
#21 = EDGE_CURVE('',#22,#24,#26,.T.);
#22 = VERTEX_POINT('',#23);
#23 = CARTESIAN_POINT('',(30.,0.,0.));
#24 = VERTEX_POINT('',#25);
#25 = CARTESIAN_POINT('',(42.,0.,6.));
#26 = SURFACE_CURVE('',#27,(#30),.PCURVE_S1.);
#27 = B_SPLINE_CURVE_WITH_KNOTS('',1,(#28,#29),.UNSPECIFIED.,.F.,.F.,(2,
    2),(0.,1.),.PIECEWISE_BEZIER_KNOTS.);
#28 = CARTESIAN_POINT('',(30.,0.,0.));
#29 = CARTESIAN_POINT('',(42.,0.,6.));
#30 = PCURVE('',#31,#54);
#31 = B_SPLINE_SURFACE_WITH_KNOTS('',6,1,(
    (#32,#33)
    ,(#34,#35)
    ,(#36,#37)
    ,(#38,#39)
    ,(#40,#41)
    ,(#42,#43)
    ,(#44,#45)
    ,(#46,#47)
    ,(#48,#49)
    ,(#50,#51)
    ,(#52,#53
    )),.UNSPECIFIED.,.F.,.F.,.F.,(7,4,7),(2,2),(0.,0.561238892541,1.),(
    0.,1.),.UNSPECIFIED.);
#32 = CARTESIAN_POINT('',(30.,0.,0.));
#33 = CARTESIAN_POINT('',(42.,0.,6.));
#34 = CARTESIAN_POINT('',(33.264483384978,1.12287737669,1.496975628814)
  );
#35 = CARTESIAN_POINT('',(46.36799835347,4.013781174116,8.00337567612));
#36 = CARTESIAN_POINT('',(36.358882706034,2.61571168505,3.097379566556)
  );
#37 = CARTESIAN_POINT('',(49.738955512151,9.118728921257,10.047046004127
    ));
#38 = CARTESIAN_POINT('',(39.170770763831,4.516843325157,4.82827547803)
  );
#39 = CARTESIAN_POINT('',(51.731247751718,14.990555110822,
    12.108955639512));
#40 = CARTESIAN_POINT('',(41.619750087061,6.828270779923,6.699318211594)
  );
#41 = CARTESIAN_POINT('',(52.21446941058,21.149962293627,14.175741097303
    ));
#42 = CARTESIAN_POINT('',(44.804790044207,11.739042401217,
    10.390906351085));
#43 = CARTESIAN_POINT('',(50.473145512536,31.836547373598,
    17.858709572794));
#44 = CARTESIAN_POINT('',(45.058413945362,17.12724160243,14.580003683525
    ));
#45 = CARTESIAN_POINT('',(44.649728943584,40.832037594998,21.53977218462
    ));
#46 = CARTESIAN_POINT('',(44.496054115026,19.466844055669,16.49820578448
    ));
#47 = CARTESIAN_POINT('',(41.392264638963,44.276093927852,23.15411103708
    ));
#48 = CARTESIAN_POINT('',(43.15292396029,21.48116864413,18.422125608249)
  );
#49 = CARTESIAN_POINT('',(37.563020546437,47.069309202334,
    24.768698228006));
#50 = CARTESIAN_POINT('',(41.344762588796,22.996132313048,
    20.256929877933));
#51 = CARTESIAN_POINT('',(33.324296490064,49.106974399324,
    26.384528316693));
#52 = CARTESIAN_POINT('',(39.216128014737,24.04361253081,22.));
#53 = CARTESIAN_POINT('',(28.85912077772,50.310547084453,28.));
#54 = DEFINITIONAL_REPRESENTATION('',(#55),#59);
#55 = LINE('',#56,#57);
#56 = CARTESIAN_POINT('',(0.,0.));
#57 = VECTOR('',#58,1.);
#58 = DIRECTION('',(0.,1.));
#59 = ( GEOMETRIC_REPRESENTATION_CONTEXT(2) 
PARAMETRIC_REPRESENTATION_CONTEXT() REPRESENTATION_CONTEXT('2D SPACE',''
  ) );
#60 = ORIENTED_EDGE('',*,*,#61,.T.);
#61 = EDGE_CURVE('',#22,#62,#64,.T.);
#62 = VERTEX_POINT('',#63);
#63 = CARTESIAN_POINT('',(39.216128014737,24.04361253081,22.));
#64 = SURFACE_CURVE('',#65,(#77),.PCURVE_S1.);
#65 = B_SPLINE_CURVE_WITH_KNOTS('',6,(#66,#67,#68,#69,#70,#71,#72,#73,
    #74,#75,#76),.UNSPECIFIED.,.F.,.F.,(7,4,7),(0.,0.561238892541,1.),
  .UNSPECIFIED.);
#66 = CARTESIAN_POINT('',(30.,0.,0.));
#67 = CARTESIAN_POINT('',(33.264483384978,1.12287737669,1.496975628814)
  );
#68 = CARTESIAN_POINT('',(36.358882706034,2.61571168505,3.097379566556)
  );
#69 = CARTESIAN_POINT('',(39.170770763831,4.516843325157,4.82827547803)
  );
#70 = CARTESIAN_POINT('',(41.619750087061,6.828270779923,6.699318211594)
  );
#71 = CARTESIAN_POINT('',(44.804790044207,11.739042401217,
    10.390906351085));
#72 = CARTESIAN_POINT('',(45.058413945362,17.12724160243,14.580003683525
    ));
#73 = CARTESIAN_POINT('',(44.496054115026,19.466844055669,16.49820578448
    ));
#74 = CARTESIAN_POINT('',(43.15292396029,21.48116864413,18.422125608249)
  );
#75 = CARTESIAN_POINT('',(41.344762588796,22.996132313048,
    20.256929877933));
#76 = CARTESIAN_POINT('',(39.216128014737,24.04361253081,22.));
#77 = PCURVE('',#31,#78);
#78 = DEFINITIONAL_REPRESENTATION('',(#79),#83);
#79 = LINE('',#80,#81);
#80 = CARTESIAN_POINT('',(0.,0.));
#81 = VECTOR('',#82,1.);
#82 = DIRECTION('',(1.,0.));
#83 = ( GEOMETRIC_REPRESENTATION_CONTEXT(2) 
PARAMETRIC_REPRESENTATION_CONTEXT() REPRESENTATION_CONTEXT('2D SPACE',''
  ) );
#84 = ORIENTED_EDGE('',*,*,#85,.T.);
#85 = EDGE_CURVE('',#62,#86,#88,.T.);
#86 = VERTEX_POINT('',#87);
#87 = CARTESIAN_POINT('',(28.85912077772,50.310547084453,28.));
#88 = SURFACE_CURVE('',#89,(#92),.PCURVE_S1.);
#89 = B_SPLINE_CURVE_WITH_KNOTS('',1,(#90,#91),.UNSPECIFIED.,.F.,.F.,(2,
    2),(0.,1.),.PIECEWISE_BEZIER_KNOTS.);
#90 = CARTESIAN_POINT('',(39.216128014737,24.04361253081,22.));
#91 = CARTESIAN_POINT('',(28.85912077772,50.310547084453,28.));
#92 = PCURVE('',#31,#93);
#93 = DEFINITIONAL_REPRESENTATION('',(#94),#98);
#94 = LINE('',#95,#96);
#95 = CARTESIAN_POINT('',(1.,0.));
#96 = VECTOR('',#97,1.);
#97 = DIRECTION('',(0.,1.));
#98 = ( GEOMETRIC_REPRESENTATION_CONTEXT(2) 
PARAMETRIC_REPRESENTATION_CONTEXT() REPRESENTATION_CONTEXT('2D SPACE',''
  ) );
#99 = ORIENTED_EDGE('',*,*,#100,.F.);
#100 = EDGE_CURVE('',#24,#86,#101,.T.);
#101 = SURFACE_CURVE('',#102,(#114),.PCURVE_S1.);
#102 = B_SPLINE_CURVE_WITH_KNOTS('',6,(#103,#104,#105,#106,#107,#108,
    #109,#110,#111,#112,#113),.UNSPECIFIED.,.F.,.F.,(7,4,7),(0.,
    0.561238892541,1.),.UNSPECIFIED.);
#103 = CARTESIAN_POINT('',(42.,0.,6.));
#104 = CARTESIAN_POINT('',(46.36799835347,4.013781174116,8.00337567612)
  );
#105 = CARTESIAN_POINT('',(49.738955512151,9.118728921257,
    10.047046004127));
#106 = CARTESIAN_POINT('',(51.731247751718,14.990555110822,
    12.108955639512));
#107 = CARTESIAN_POINT('',(52.21446941058,21.149962293627,
    14.175741097303));
#108 = CARTESIAN_POINT('',(50.473145512536,31.836547373598,
    17.858709572794));
#109 = CARTESIAN_POINT('',(44.649728943584,40.832037594998,
    21.53977218462));
#110 = CARTESIAN_POINT('',(41.392264638963,44.276093927852,
    23.15411103708));
#111 = CARTESIAN_POINT('',(37.563020546437,47.069309202334,
    24.768698228006));
#112 = CARTESIAN_POINT('',(33.324296490064,49.106974399324,
    26.384528316693));
#113 = CARTESIAN_POINT('',(28.85912077772,50.310547084453,28.));
#114 = PCURVE('',#31,#115);
#115 = DEFINITIONAL_REPRESENTATION('',(#116),#120);
#116 = LINE('',#117,#118);
#117 = CARTESIAN_POINT('',(0.,1.));
#118 = VECTOR('',#119,1.);
#119 = DIRECTION('',(1.,0.));
#120 = ( GEOMETRIC_REPRESENTATION_CONTEXT(2) 
PARAMETRIC_REPRESENTATION_CONTEXT() REPRESENTATION_CONTEXT('2D SPACE',''
  ) );
#121 = ( GEOMETRIC_REPRESENTATION_CONTEXT(3) 
GLOBAL_UNCERTAINTY_ASSIGNED_CONTEXT((#125)) GLOBAL_UNIT_ASSIGNED_CONTEXT
((#122,#123,#124)) REPRESENTATION_CONTEXT('Context #1',
  '3D Context with UNIT and UNCERTAINTY') );
#122 = ( LENGTH_UNIT() NAMED_UNIT(*) SI_UNIT(.MILLI.,.METRE.) );
#123 = ( NAMED_UNIT(*) PLANE_ANGLE_UNIT() SI_UNIT($,.RADIAN.) );
#124 = ( NAMED_UNIT(*) SI_UNIT($,.STERADIAN.) SOLID_ANGLE_UNIT() );
#125 = UNCERTAINTY_MEASURE_WITH_UNIT(LENGTH_MEASURE(1.E-07),#122,
  'distance_accuracy_value','confusion accuracy');
#126 = PRODUCT_RELATED_PRODUCT_CATEGORY('part',$,(#7));
ENDSEC;
END-ISO-10303-21;
