ISO-10303-21;
HEADER;
FILE_DESCRIPTION(('Open CASCADE Model'),'2;1');
FILE_NAME('Open CASCADE Shape Model','2026-06-20T04:47:44',('Author'),(
    'Open CASCADE'),'Open CASCADE STEP processor 7.9','Open CASCADE 7.9'
  ,'Unknown');
FILE_SCHEMA(('AUTOMOTIVE_DESIGN { 1 0 10303 214 1 1 1 1 }'));
ENDSEC;
DATA;
#1 = APPLICATION_PROTOCOL_DEFINITION('international standard',
  'automotive_design',2000,#2);
#2 = APPLICATION_CONTEXT(
  'core data for automotive mechanical design processes');
#3 = SHAPE_DEFINITION_REPRESENTATION(#4,#10);
#4 = PRODUCT_DEFINITION_SHAPE('','',#5);
#5 = PRODUCT_DEFINITION('design','',#6,#9);
#6 = PRODUCT_DEFINITION_FORMATION('','',#7);
#7 = PRODUCT('Open CASCADE STEP translator 7.9 2',
  'Open CASCADE STEP translator 7.9 2','',(#8));
#8 = PRODUCT_CONTEXT('',#2,'mechanical');
#9 = PRODUCT_DEFINITION_CONTEXT('part definition',#2,'design');
#10 = MANIFOLD_SURFACE_SHAPE_REPRESENTATION('',(#11,#15),#209);
#11 = AXIS2_PLACEMENT_3D('',#12,#13,#14);
#12 = CARTESIAN_POINT('',(0.,0.,0.));
#13 = DIRECTION('',(0.,0.,1.));
#14 = DIRECTION('',(1.,0.,-0.));
#15 = SHELL_BASED_SURFACE_MODEL('',(#16));
#16 = OPEN_SHELL('',(#17));
#17 = ADVANCED_FACE('',(#18),#31,.T.);
#18 = FACE_BOUND('',#19,.T.);
#19 = EDGE_LOOP('',(#20,#104,#150,#165));
#20 = ORIENTED_EDGE('',*,*,#21,.F.);
#21 = EDGE_CURVE('',#22,#24,#26,.T.);
#22 = VERTEX_POINT('',#23);
#23 = CARTESIAN_POINT('',(34.,0.,0.));
#24 = VERTEX_POINT('',#25);
#25 = CARTESIAN_POINT('',(44.,0.,6.));
#26 = SURFACE_CURVE('',#27,(#30),.PCURVE_S1.);
#27 = B_SPLINE_CURVE_WITH_KNOTS('',1,(#28,#29),.UNSPECIFIED.,.F.,.F.,(2,
    2),(0.,1.),.PIECEWISE_BEZIER_KNOTS.);
#28 = CARTESIAN_POINT('',(34.,0.,0.));
#29 = CARTESIAN_POINT('',(44.,0.,6.));
#30 = PCURVE('',#31,#98);
#31 = B_SPLINE_SURFACE_WITH_KNOTS('',8,1,(
    (#32,#33)
    ,(#34,#35)
    ,(#36,#37)
    ,(#38,#39)
    ,(#40,#41)
    ,(#42,#43)
    ,(#44,#45)
    ,(#46,#47)
    ,(#48,#49)
    ,(#50,#51)
    ,(#52,#53)
    ,(#54,#55)
    ,(#56,#57)
    ,(#58,#59)
    ,(#60,#61)
    ,(#62,#63)
    ,(#64,#65)
    ,(#66,#67)
    ,(#68,#69)
    ,(#70,#71)
    ,(#72,#73)
    ,(#74,#75)
    ,(#76,#77)
    ,(#78,#79)
    ,(#80,#81)
    ,(#82,#83)
    ,(#84,#85)
    ,(#86,#87)
    ,(#88,#89)
    ,(#90,#91)
    ,(#92,#93)
    ,(#94,#95)
    ,(#96,#97
    )),.UNSPECIFIED.,.F.,.F.,.F.,(9,6,6,6,6,9),(2,2),(0.,0.329916812692,
    0.356481392745,0.541310151388,0.582817230112,1.),(0.,1.),
  .UNSPECIFIED.);
#32 = CARTESIAN_POINT('',(34.,0.,0.));
#33 = CARTESIAN_POINT('',(44.,0.,6.));
#34 = CARTESIAN_POINT('',(34.411091549899,1.259529698239,0.630922361922)
  );
#35 = CARTESIAN_POINT('',(44.469713431205,2.591581403091,6.72317025375)
  );
#36 = CARTESIAN_POINT('',(34.754900937258,2.560552263291,1.250775087983)
  );
#37 = CARTESIAN_POINT('',(44.758529531326,5.217631973162,7.432678664355)
  );
#38 = CARTESIAN_POINT('',(35.080386793466,3.810132827138,1.895345221172)
  );
#39 = CARTESIAN_POINT('',(44.866405371825,7.866719299848,8.145916353129)
  );
#40 = CARTESIAN_POINT('',(35.309059427416,5.164451959387,2.527261627399)
  );
#41 = CARTESIAN_POINT('',(44.832567444619,10.493378117101,8.883719026775
    ));
#42 = CARTESIAN_POINT('',(35.59431770792,6.376329874223,3.254015561864)
  );
#43 = CARTESIAN_POINT('',(44.6414093554,13.123489273894,9.665615708682)
  );
#44 = CARTESIAN_POINT('',(35.808962612338,7.643622369519,3.982241803638)
  );
#45 = CARTESIAN_POINT('',(44.348859691307,15.698067997111,
    10.506838046976));
#46 = CARTESIAN_POINT('',(36.147287373763,8.911252622167,4.957609066095)
  );
#47 = CARTESIAN_POINT('',(43.962142070289,18.441964522005,
    11.562210791452));
#48 = CARTESIAN_POINT('',(36.681498796259,9.847614736239,6.123499035982)
  );
#49 = CARTESIAN_POINT('',(43.636395420406,21.072257261864,
    12.857428415472));
#50 = CARTESIAN_POINT('',(36.72243156473,9.915452821235,6.211431903871)
  );
#51 = CARTESIAN_POINT('',(43.612418401081,21.267679180766,
    12.955248587381));
#52 = CARTESIAN_POINT('',(36.764520274973,9.981251704805,6.300403241554)
  );
#53 = CARTESIAN_POINT('',(43.588747312225,21.462520613855,
    13.054370523622));
#54 = CARTESIAN_POINT('',(36.807791381989,10.044910075316,6.390390149618
    ));
#55 = CARTESIAN_POINT('',(43.565415934233,21.656763649181,
    13.154806420222));
#56 = CARTESIAN_POINT('',(36.85226420112,10.106327316709,6.481358683412)
  );
#57 = CARTESIAN_POINT('',(43.542465538841,21.850382520434,
    13.256569065191));
#58 = CARTESIAN_POINT('',(37.215810715718,10.576452298638,7.212697347435
    ));
#59 = CARTESIAN_POINT('',(43.363157471733,23.385984435559,14.07696837204
    ));
#60 = CARTESIAN_POINT('',(37.656037560352,10.892504146452,7.999256612737
    ));
#61 = CARTESIAN_POINT('',(43.211868076245,24.879393354086,
    14.981298882939));
#62 = CARTESIAN_POINT('',(38.103649598642,11.007646157038,8.712376770842
    ));
#63 = CARTESIAN_POINT('',(43.109319192026,26.146936421177,
    15.833859780305));
#64 = CARTESIAN_POINT('',(38.566071359914,11.025253127472,9.399464560684
    ));
#65 = CARTESIAN_POINT('',(43.016375306355,27.38636627255,16.717299185448
    ));
#66 = CARTESIAN_POINT('',(39.026296128386,10.989428874339,
    10.066775598263));
#67 = CARTESIAN_POINT('',(42.759503578925,28.714380070731,17.49186070528
    ));
#68 = CARTESIAN_POINT('',(39.49376412231,10.966988804031,10.751432511807
    ));
#69 = CARTESIAN_POINT('',(42.374039398919,30.038457537251,
    18.171629380889));
#70 = CARTESIAN_POINT('',(40.047182700592,11.05232136442,11.606393240858
    ));
#71 = CARTESIAN_POINT('',(41.781461994882,31.655593946884,
    18.921070199543));
#72 = CARTESIAN_POINT('',(40.534148121348,11.332676008141,
    12.443891095439));
#73 = CARTESIAN_POINT('',(41.050936675466,33.250729658633,19.57897910573
    ));
#74 = CARTESIAN_POINT('',(40.620890538025,11.3910777509,12.596605176103)
  );
#75 = CARTESIAN_POINT('',(40.912519417782,33.542401996926,
    19.696731070972));
#76 = CARTESIAN_POINT('',(40.704731043081,11.456793559297,
    12.748107811354));
#77 = CARTESIAN_POINT('',(40.769828394591,33.833119397933,
    19.811748360161));
#78 = CARTESIAN_POINT('',(40.785328236327,11.530015268648,
    12.898016759623));
#79 = CARTESIAN_POINT('',(40.623023635832,34.122794773945,
    19.924184529045));
#80 = CARTESIAN_POINT('',(40.862366328073,11.610765292875,
    13.045929677243));
#81 = CARTESIAN_POINT('',(40.472252304473,34.411351890925,
    20.034182254047));
#82 = CARTESIAN_POINT('',(41.671617807129,12.584246032842,
    14.654198183178));
#83 = CARTESIAN_POINT('',(38.763761921121,37.587064036511,
    21.224273334459));
#84 = CARTESIAN_POINT('',(42.000785248333,14.400294909419,
    15.934368629455));
#85 = CARTESIAN_POINT('',(36.602776340673,40.610788966417,
    22.147856007457));
#86 = CARTESIAN_POINT('',(41.852169997745,16.15692331999,16.601727417146
    ));
#87 = CARTESIAN_POINT('',(34.390523070121,43.175011815301,
    22.892762087511));
#88 = CARTESIAN_POINT('',(41.846955766058,17.715379651908,
    17.520175152547));
#89 = CARTESIAN_POINT('',(31.955140198691,45.572729851045,23.57397254024
    ));
#90 = CARTESIAN_POINT('',(41.438493016182,19.571715889469,
    18.072460230982));
#91 = CARTESIAN_POINT('',(29.345212408861,47.759614954997,
    24.211143010122));
#92 = CARTESIAN_POINT('',(41.114554467736,21.190459993551,
    18.780207731169));
#93 = CARTESIAN_POINT('',(26.571573473937,49.759292443414,
    24.822019429981));
#94 = CARTESIAN_POINT('',(40.615566738697,22.907248583315,
    19.380363723559));
#95 = CARTESIAN_POINT('',(23.669116337574,51.545867218513,
    25.414899440197));
#96 = CARTESIAN_POINT('',(40.068652536797,24.566299759741,20.));
#97 = CARTESIAN_POINT('',(20.65439200517,53.126227900132,26.));
#98 = DEFINITIONAL_REPRESENTATION('',(#99),#103);
#99 = LINE('',#100,#101);
#100 = CARTESIAN_POINT('',(0.,0.));
#101 = VECTOR('',#102,1.);
#102 = DIRECTION('',(0.,1.));
#103 = ( GEOMETRIC_REPRESENTATION_CONTEXT(2) 
PARAMETRIC_REPRESENTATION_CONTEXT() REPRESENTATION_CONTEXT('2D SPACE',''
  ) );
#104 = ORIENTED_EDGE('',*,*,#105,.T.);
#105 = EDGE_CURVE('',#22,#106,#108,.T.);
#106 = VERTEX_POINT('',#107);
#107 = CARTESIAN_POINT('',(40.068652536797,24.566299759741,20.));
#108 = SURFACE_CURVE('',#109,(#143),.PCURVE_S1.);
#109 = B_SPLINE_CURVE_WITH_KNOTS('',8,(#110,#111,#112,#113,#114,#115,
    #116,#117,#118,#119,#120,#121,#122,#123,#124,#125,#126,#127,#128,
    #129,#130,#131,#132,#133,#134,#135,#136,#137,#138,#139,#140,#141,
    #142),.UNSPECIFIED.,.F.,.F.,(9,6,6,6,6,9),(0.,0.329916812692,
    0.356481392745,0.541310151388,0.582817230112,1.),.UNSPECIFIED.);
#110 = CARTESIAN_POINT('',(34.,0.,0.));
#111 = CARTESIAN_POINT('',(34.411091549899,1.259529698239,0.630922361922
    ));
#112 = CARTESIAN_POINT('',(34.754900937258,2.560552263291,1.250775087983
    ));
#113 = CARTESIAN_POINT('',(35.080386793466,3.810132827138,1.895345221172
    ));
#114 = CARTESIAN_POINT('',(35.309059427416,5.164451959387,2.527261627399
    ));
#115 = CARTESIAN_POINT('',(35.59431770792,6.376329874223,3.254015561864)
  );
#116 = CARTESIAN_POINT('',(35.808962612338,7.643622369519,3.982241803638
    ));
#117 = CARTESIAN_POINT('',(36.147287373763,8.911252622167,4.957609066095
    ));
#118 = CARTESIAN_POINT('',(36.681498796259,9.847614736239,6.123499035982
    ));
#119 = CARTESIAN_POINT('',(36.72243156473,9.915452821235,6.211431903871)
  );
#120 = CARTESIAN_POINT('',(36.764520274973,9.981251704805,6.300403241554
    ));
#121 = CARTESIAN_POINT('',(36.807791381989,10.044910075316,
    6.390390149618));
#122 = CARTESIAN_POINT('',(36.85226420112,10.106327316709,6.481358683412
    ));
#123 = CARTESIAN_POINT('',(37.215810715718,10.576452298638,
    7.212697347435));
#124 = CARTESIAN_POINT('',(37.656037560352,10.892504146452,
    7.999256612737));
#125 = CARTESIAN_POINT('',(38.103649598642,11.007646157038,
    8.712376770842));
#126 = CARTESIAN_POINT('',(38.566071359914,11.025253127472,
    9.399464560684));
#127 = CARTESIAN_POINT('',(39.026296128386,10.989428874339,
    10.066775598263));
#128 = CARTESIAN_POINT('',(39.49376412231,10.966988804031,
    10.751432511807));
#129 = CARTESIAN_POINT('',(40.047182700592,11.05232136442,
    11.606393240858));
#130 = CARTESIAN_POINT('',(40.534148121348,11.332676008141,
    12.443891095439));
#131 = CARTESIAN_POINT('',(40.620890538025,11.3910777509,12.596605176103
    ));
#132 = CARTESIAN_POINT('',(40.704731043081,11.456793559297,
    12.748107811354));
#133 = CARTESIAN_POINT('',(40.785328236327,11.530015268648,
    12.898016759623));
#134 = CARTESIAN_POINT('',(40.862366328073,11.610765292875,
    13.045929677243));
#135 = CARTESIAN_POINT('',(41.671617807129,12.584246032842,
    14.654198183178));
#136 = CARTESIAN_POINT('',(42.000785248333,14.400294909419,
    15.934368629455));
#137 = CARTESIAN_POINT('',(41.852169997745,16.15692331999,
    16.601727417146));
#138 = CARTESIAN_POINT('',(41.846955766058,17.715379651908,
    17.520175152547));
#139 = CARTESIAN_POINT('',(41.438493016182,19.571715889469,
    18.072460230982));
#140 = CARTESIAN_POINT('',(41.114554467736,21.190459993551,
    18.780207731169));
#141 = CARTESIAN_POINT('',(40.615566738697,22.907248583315,
    19.380363723559));
#142 = CARTESIAN_POINT('',(40.068652536797,24.566299759741,20.));
#143 = PCURVE('',#31,#144);
#144 = DEFINITIONAL_REPRESENTATION('',(#145),#149);
#145 = LINE('',#146,#147);
#146 = CARTESIAN_POINT('',(0.,0.));
#147 = VECTOR('',#148,1.);
#148 = DIRECTION('',(1.,0.));
#149 = ( GEOMETRIC_REPRESENTATION_CONTEXT(2) 
PARAMETRIC_REPRESENTATION_CONTEXT() REPRESENTATION_CONTEXT('2D SPACE',''
  ) );
#150 = ORIENTED_EDGE('',*,*,#151,.T.);
#151 = EDGE_CURVE('',#106,#152,#154,.T.);
#152 = VERTEX_POINT('',#153);
#153 = CARTESIAN_POINT('',(20.65439200517,53.126227900132,26.));
#154 = SURFACE_CURVE('',#155,(#158),.PCURVE_S1.);
#155 = B_SPLINE_CURVE_WITH_KNOTS('',1,(#156,#157),.UNSPECIFIED.,.F.,.F.,
  (2,2),(0.,1.),.PIECEWISE_BEZIER_KNOTS.);
#156 = CARTESIAN_POINT('',(40.068652536797,24.566299759741,20.));
#157 = CARTESIAN_POINT('',(20.65439200517,53.126227900132,26.));
#158 = PCURVE('',#31,#159);
#159 = DEFINITIONAL_REPRESENTATION('',(#160),#164);
#160 = LINE('',#161,#162);
#161 = CARTESIAN_POINT('',(1.,0.));
#162 = VECTOR('',#163,1.);
#163 = DIRECTION('',(0.,1.));
#164 = ( GEOMETRIC_REPRESENTATION_CONTEXT(2) 
PARAMETRIC_REPRESENTATION_CONTEXT() REPRESENTATION_CONTEXT('2D SPACE',''
  ) );
#165 = ORIENTED_EDGE('',*,*,#166,.F.);
#166 = EDGE_CURVE('',#24,#152,#167,.T.);
#167 = SURFACE_CURVE('',#168,(#202),.PCURVE_S1.);
#168 = B_SPLINE_CURVE_WITH_KNOTS('',8,(#169,#170,#171,#172,#173,#174,
    #175,#176,#177,#178,#179,#180,#181,#182,#183,#184,#185,#186,#187,
    #188,#189,#190,#191,#192,#193,#194,#195,#196,#197,#198,#199,#200,
    #201),.UNSPECIFIED.,.F.,.F.,(9,6,6,6,6,9),(0.,0.329916812692,
    0.356481392745,0.541310151388,0.582817230112,1.),.UNSPECIFIED.);
#169 = CARTESIAN_POINT('',(44.,0.,6.));
#170 = CARTESIAN_POINT('',(44.469713431205,2.591581403091,6.72317025375)
  );
#171 = CARTESIAN_POINT('',(44.758529531326,5.217631973162,7.432678664355
    ));
#172 = CARTESIAN_POINT('',(44.866405371825,7.866719299848,8.145916353129
    ));
#173 = CARTESIAN_POINT('',(44.832567444619,10.493378117101,
    8.883719026775));
#174 = CARTESIAN_POINT('',(44.6414093554,13.123489273894,9.665615708682)
  );
#175 = CARTESIAN_POINT('',(44.348859691307,15.698067997111,
    10.506838046976));
#176 = CARTESIAN_POINT('',(43.962142070289,18.441964522005,
    11.562210791452));
#177 = CARTESIAN_POINT('',(43.636395420406,21.072257261864,
    12.857428415472));
#178 = CARTESIAN_POINT('',(43.612418401081,21.267679180766,
    12.955248587381));
#179 = CARTESIAN_POINT('',(43.588747312225,21.462520613855,
    13.054370523622));
#180 = CARTESIAN_POINT('',(43.565415934233,21.656763649181,
    13.154806420222));
#181 = CARTESIAN_POINT('',(43.542465538841,21.850382520434,
    13.256569065191));
#182 = CARTESIAN_POINT('',(43.363157471733,23.385984435559,
    14.07696837204));
#183 = CARTESIAN_POINT('',(43.211868076245,24.879393354086,
    14.981298882939));
#184 = CARTESIAN_POINT('',(43.109319192026,26.146936421177,
    15.833859780305));
#185 = CARTESIAN_POINT('',(43.016375306355,27.38636627255,
    16.717299185448));
#186 = CARTESIAN_POINT('',(42.759503578925,28.714380070731,
    17.49186070528));
#187 = CARTESIAN_POINT('',(42.374039398919,30.038457537251,
    18.171629380889));
#188 = CARTESIAN_POINT('',(41.781461994882,31.655593946884,
    18.921070199543));
#189 = CARTESIAN_POINT('',(41.050936675466,33.250729658633,
    19.57897910573));
#190 = CARTESIAN_POINT('',(40.912519417782,33.542401996926,
    19.696731070972));
#191 = CARTESIAN_POINT('',(40.769828394591,33.833119397933,
    19.811748360161));
#192 = CARTESIAN_POINT('',(40.623023635832,34.122794773945,
    19.924184529045));
#193 = CARTESIAN_POINT('',(40.472252304473,34.411351890925,
    20.034182254047));
#194 = CARTESIAN_POINT('',(38.763761921121,37.587064036511,
    21.224273334459));
#195 = CARTESIAN_POINT('',(36.602776340673,40.610788966417,
    22.147856007457));
#196 = CARTESIAN_POINT('',(34.390523070121,43.175011815301,
    22.892762087511));
#197 = CARTESIAN_POINT('',(31.955140198691,45.572729851045,
    23.57397254024));
#198 = CARTESIAN_POINT('',(29.345212408861,47.759614954997,
    24.211143010122));
#199 = CARTESIAN_POINT('',(26.571573473937,49.759292443414,
    24.822019429981));
#200 = CARTESIAN_POINT('',(23.669116337574,51.545867218513,
    25.414899440197));
#201 = CARTESIAN_POINT('',(20.65439200517,53.126227900132,26.));
#202 = PCURVE('',#31,#203);
#203 = DEFINITIONAL_REPRESENTATION('',(#204),#208);
#204 = LINE('',#205,#206);
#205 = CARTESIAN_POINT('',(0.,1.));
#206 = VECTOR('',#207,1.);
#207 = DIRECTION('',(1.,0.));
#208 = ( GEOMETRIC_REPRESENTATION_CONTEXT(2) 
PARAMETRIC_REPRESENTATION_CONTEXT() REPRESENTATION_CONTEXT('2D SPACE',''
  ) );
#209 = ( GEOMETRIC_REPRESENTATION_CONTEXT(3) 
GLOBAL_UNCERTAINTY_ASSIGNED_CONTEXT((#213)) GLOBAL_UNIT_ASSIGNED_CONTEXT
((#210,#211,#212)) REPRESENTATION_CONTEXT('Context #1',
  '3D Context with UNIT and UNCERTAINTY') );
#210 = ( LENGTH_UNIT() NAMED_UNIT(*) SI_UNIT(.MILLI.,.METRE.) );
#211 = ( NAMED_UNIT(*) PLANE_ANGLE_UNIT() SI_UNIT($,.RADIAN.) );
#212 = ( NAMED_UNIT(*) SI_UNIT($,.STERADIAN.) SOLID_ANGLE_UNIT() );
#213 = UNCERTAINTY_MEASURE_WITH_UNIT(LENGTH_MEASURE(1.E-07),#210,
  'distance_accuracy_value','confusion accuracy');
#214 = PRODUCT_RELATED_PRODUCT_CATEGORY('part',$,(#7));
ENDSEC;
END-ISO-10303-21;
