ISO-10303-21;
HEADER;
FILE_DESCRIPTION(('Open CASCADE Model'),'2;1');
FILE_NAME('Open CASCADE Shape Model','2026-06-20T04:48:26',('Author'),(
    'Open CASCADE'),'Open CASCADE STEP processor 7.9','Open CASCADE 7.9'
  ,'Unknown');
FILE_SCHEMA(('AUTOMOTIVE_DESIGN { 1 0 10303 214 1 1 1 1 }'));
ENDSEC;
DATA;
#1 = APPLICATION_PROTOCOL_DEFINITION('international standard',
  'automotive_design',2000,#2);
#2 = APPLICATION_CONTEXT(
  'core data for automotive mechanical design processes');
#3 = SHAPE_DEFINITION_REPRESENTATION(#4,#10);
#4 = PRODUCT_DEFINITION_SHAPE('','',#5);
#5 = PRODUCT_DEFINITION('design','',#6,#9);
#6 = PRODUCT_DEFINITION_FORMATION('','',#7);
#7 = PRODUCT('Open CASCADE STEP translator 7.9 5',
  'Open CASCADE STEP translator 7.9 5','',(#8));
#8 = PRODUCT_CONTEXT('',#2,'mechanical');
#9 = PRODUCT_DEFINITION_CONTEXT('part definition',#2,'design');
#10 = MANIFOLD_SURFACE_SHAPE_REPRESENTATION('',(#11,#15),#121);
#11 = AXIS2_PLACEMENT_3D('',#12,#13,#14);
#12 = CARTESIAN_POINT('',(0.,0.,0.));
#13 = DIRECTION('',(0.,0.,1.));
#14 = DIRECTION('',(1.,0.,-0.));
#15 = SHELL_BASED_SURFACE_MODEL('',(#16));
#16 = OPEN_SHELL('',(#17));
#17 = ADVANCED_FACE('',(#18),#31,.T.);
#18 = FACE_BOUND('',#19,.T.);
#19 = EDGE_LOOP('',(#20,#60,#84,#99));
#20 = ORIENTED_EDGE('',*,*,#21,.F.);
#21 = EDGE_CURVE('',#22,#24,#26,.T.);
#22 = VERTEX_POINT('',#23);
#23 = CARTESIAN_POINT('',(34.,0.,0.));
#24 = VERTEX_POINT('',#25);
#25 = CARTESIAN_POINT('',(44.,0.,8.));
#26 = SURFACE_CURVE('',#27,(#30),.PCURVE_S1.);
#27 = B_SPLINE_CURVE_WITH_KNOTS('',1,(#28,#29),.UNSPECIFIED.,.F.,.F.,(2,
    2),(0.,1.),.PIECEWISE_BEZIER_KNOTS.);
#28 = CARTESIAN_POINT('',(34.,0.,0.));
#29 = CARTESIAN_POINT('',(44.,0.,8.));
#30 = PCURVE('',#31,#54);
#31 = B_SPLINE_SURFACE_WITH_KNOTS('',6,1,(
    (#32,#33)
    ,(#34,#35)
    ,(#36,#37)
    ,(#38,#39)
    ,(#40,#41)
    ,(#42,#43)
    ,(#44,#45)
    ,(#46,#47)
    ,(#48,#49)
    ,(#50,#51)
    ,(#52,#53
    )),.UNSPECIFIED.,.F.,.F.,.F.,(7,4,7),(2,2),(0.,0.549028094023,1.),(
    0.,1.),.UNSPECIFIED.);
#32 = CARTESIAN_POINT('',(34.,0.,0.));
#33 = CARTESIAN_POINT('',(44.,0.,8.));
#34 = CARTESIAN_POINT('',(35.54124706765,1.636730110972,2.88945690879));
#35 = CARTESIAN_POINT('',(45.080540654164,3.232341902556,12.50183809075)
  );
#36 = CARTESIAN_POINT('',(36.970676885669,3.43497487329,5.747373528635)
  );
#37 = CARTESIAN_POINT('',(45.875368743282,6.615123514144,16.97441684228)
  );
#38 = CARTESIAN_POINT('',(38.273088370323,5.378869095488,8.573456990441)
  );
#39 = CARTESIAN_POINT('',(46.363020023628,10.252412902774,
    21.280840347338));
#40 = CARTESIAN_POINT('',(39.435928218217,7.452331740445,11.367582630042
    ));
#41 = CARTESIAN_POINT('',(46.568502874581,14.147523386157,
    25.430833160052));
#42 = CARTESIAN_POINT('',(41.281667441952,11.435250299164,16.39867555266
    ));
#43 = CARTESIAN_POINT('',(46.056970081082,22.186642143626,
    32.134094563855));
#44 = CARTESIAN_POINT('',(42.607438707498,15.739166165192,
    21.324595329297));
#45 = CARTESIAN_POINT('',(43.379900010765,31.382835908949,36.2108357887)
  );
#46 = CARTESIAN_POINT('',(43.095553250652,17.736243028733,
    23.524774450667));
#47 = CARTESIAN_POINT('',(41.630512123308,35.70747220236,37.337422772218
    ));
#48 = CARTESIAN_POINT('',(43.471079835718,19.780202040712,
    25.703875181985));
#49 = CARTESIAN_POINT('',(39.360960433937,39.799399097635,
    37.696041794591));
#50 = CARTESIAN_POINT('',(43.732406873938,21.861695370406,
    27.862168012145));
#51 = CARTESIAN_POINT('',(36.731509782969,43.63405598802,37.863764236889
    ));
#52 = CARTESIAN_POINT('',(43.879128094519,23.97127693021,30.));
#53 = CARTESIAN_POINT('',(33.737619188905,47.178099277784,38.));
#54 = DEFINITIONAL_REPRESENTATION('',(#55),#59);
#55 = LINE('',#56,#57);
#56 = CARTESIAN_POINT('',(0.,0.));
#57 = VECTOR('',#58,1.);
#58 = DIRECTION('',(0.,1.));
#59 = ( GEOMETRIC_REPRESENTATION_CONTEXT(2) 
PARAMETRIC_REPRESENTATION_CONTEXT() REPRESENTATION_CONTEXT('2D SPACE',''
  ) );
#60 = ORIENTED_EDGE('',*,*,#61,.T.);
#61 = EDGE_CURVE('',#22,#62,#64,.T.);
#62 = VERTEX_POINT('',#63);
#63 = CARTESIAN_POINT('',(43.879128094519,23.97127693021,30.));
#64 = SURFACE_CURVE('',#65,(#77),.PCURVE_S1.);
#65 = B_SPLINE_CURVE_WITH_KNOTS('',6,(#66,#67,#68,#69,#70,#71,#72,#73,
    #74,#75,#76),.UNSPECIFIED.,.F.,.F.,(7,4,7),(0.,0.549028094023,1.),
  .UNSPECIFIED.);
#66 = CARTESIAN_POINT('',(34.,0.,0.));
#67 = CARTESIAN_POINT('',(35.54124706765,1.636730110972,2.88945690879));
#68 = CARTESIAN_POINT('',(36.970676885669,3.43497487329,5.747373528635)
  );
#69 = CARTESIAN_POINT('',(38.273088370323,5.378869095488,8.573456990441)
  );
#70 = CARTESIAN_POINT('',(39.435928218217,7.452331740445,11.367582630042
    ));
#71 = CARTESIAN_POINT('',(41.281667441952,11.435250299164,16.39867555266
    ));
#72 = CARTESIAN_POINT('',(42.607438707498,15.739166165192,
    21.324595329297));
#73 = CARTESIAN_POINT('',(43.095553250652,17.736243028733,
    23.524774450667));
#74 = CARTESIAN_POINT('',(43.471079835718,19.780202040712,
    25.703875181985));
#75 = CARTESIAN_POINT('',(43.732406873938,21.861695370406,
    27.862168012145));
#76 = CARTESIAN_POINT('',(43.879128094519,23.97127693021,30.));
#77 = PCURVE('',#31,#78);
#78 = DEFINITIONAL_REPRESENTATION('',(#79),#83);
#79 = LINE('',#80,#81);
#80 = CARTESIAN_POINT('',(0.,0.));
#81 = VECTOR('',#82,1.);
#82 = DIRECTION('',(1.,0.));
#83 = ( GEOMETRIC_REPRESENTATION_CONTEXT(2) 
PARAMETRIC_REPRESENTATION_CONTEXT() REPRESENTATION_CONTEXT('2D SPACE',''
  ) );
#84 = ORIENTED_EDGE('',*,*,#85,.T.);
#85 = EDGE_CURVE('',#62,#86,#88,.T.);
#86 = VERTEX_POINT('',#87);
#87 = CARTESIAN_POINT('',(33.737619188905,47.178099277784,38.));
#88 = SURFACE_CURVE('',#89,(#92),.PCURVE_S1.);
#89 = B_SPLINE_CURVE_WITH_KNOTS('',1,(#90,#91),.UNSPECIFIED.,.F.,.F.,(2,
    2),(0.,1.),.PIECEWISE_BEZIER_KNOTS.);
#90 = CARTESIAN_POINT('',(43.879128094519,23.97127693021,30.));
#91 = CARTESIAN_POINT('',(33.737619188905,47.178099277784,38.));
#92 = PCURVE('',#31,#93);
#93 = DEFINITIONAL_REPRESENTATION('',(#94),#98);
#94 = LINE('',#95,#96);
#95 = CARTESIAN_POINT('',(1.,0.));
#96 = VECTOR('',#97,1.);
#97 = DIRECTION('',(0.,1.));
#98 = ( GEOMETRIC_REPRESENTATION_CONTEXT(2) 
PARAMETRIC_REPRESENTATION_CONTEXT() REPRESENTATION_CONTEXT('2D SPACE',''
  ) );
#99 = ORIENTED_EDGE('',*,*,#100,.F.);
#100 = EDGE_CURVE('',#24,#86,#101,.T.);
#101 = SURFACE_CURVE('',#102,(#114),.PCURVE_S1.);
#102 = B_SPLINE_CURVE_WITH_KNOTS('',6,(#103,#104,#105,#106,#107,#108,
    #109,#110,#111,#112,#113),.UNSPECIFIED.,.F.,.F.,(7,4,7),(0.,
    0.549028094023,1.),.UNSPECIFIED.);
#103 = CARTESIAN_POINT('',(44.,0.,8.));
#104 = CARTESIAN_POINT('',(45.080540654164,3.232341902556,12.50183809075
    ));
#105 = CARTESIAN_POINT('',(45.875368743282,6.615123514144,16.97441684228
    ));
#106 = CARTESIAN_POINT('',(46.363020023628,10.252412902774,
    21.280840347338));
#107 = CARTESIAN_POINT('',(46.568502874581,14.147523386157,
    25.430833160052));
#108 = CARTESIAN_POINT('',(46.056970081082,22.186642143626,
    32.134094563855));
#109 = CARTESIAN_POINT('',(43.379900010765,31.382835908949,36.2108357887
    ));
#110 = CARTESIAN_POINT('',(41.630512123308,35.70747220236,
    37.337422772218));
#111 = CARTESIAN_POINT('',(39.360960433937,39.799399097635,
    37.696041794591));
#112 = CARTESIAN_POINT('',(36.731509782969,43.63405598802,
    37.863764236889));
#113 = CARTESIAN_POINT('',(33.737619188905,47.178099277784,38.));
#114 = PCURVE('',#31,#115);
#115 = DEFINITIONAL_REPRESENTATION('',(#116),#120);
#116 = LINE('',#117,#118);
#117 = CARTESIAN_POINT('',(0.,1.));
#118 = VECTOR('',#119,1.);
#119 = DIRECTION('',(1.,0.));
#120 = ( GEOMETRIC_REPRESENTATION_CONTEXT(2) 
PARAMETRIC_REPRESENTATION_CONTEXT() REPRESENTATION_CONTEXT('2D SPACE',''
  ) );
#121 = ( GEOMETRIC_REPRESENTATION_CONTEXT(3) 
GLOBAL_UNCERTAINTY_ASSIGNED_CONTEXT((#125)) GLOBAL_UNIT_ASSIGNED_CONTEXT
((#122,#123,#124)) REPRESENTATION_CONTEXT('Context #1',
  '3D Context with UNIT and UNCERTAINTY') );
#122 = ( LENGTH_UNIT() NAMED_UNIT(*) SI_UNIT(.MILLI.,.METRE.) );
#123 = ( NAMED_UNIT(*) PLANE_ANGLE_UNIT() SI_UNIT($,.RADIAN.) );
#124 = ( NAMED_UNIT(*) SI_UNIT($,.STERADIAN.) SOLID_ANGLE_UNIT() );
#125 = UNCERTAINTY_MEASURE_WITH_UNIT(LENGTH_MEASURE(1.E-07),#122,
  'distance_accuracy_value','confusion accuracy');
#126 = PRODUCT_RELATED_PRODUCT_CATEGORY('part',$,(#7));
ENDSEC;
END-ISO-10303-21;
