ISO-10303-21;
HEADER;
FILE_DESCRIPTION(('Open CASCADE Model'),'2;1');
FILE_NAME('Open CASCADE Shape Model','2026-06-20T10:51:11',('Author'),(
    'Open CASCADE'),'Open CASCADE STEP processor 7.9','Open CASCADE 7.9'
  ,'Unknown');
FILE_SCHEMA(('AUTOMOTIVE_DESIGN { 1 0 10303 214 1 1 1 1 }'));
ENDSEC;
DATA;
#1 = APPLICATION_PROTOCOL_DEFINITION('international standard',
  'automotive_design',2000,#2);
#2 = APPLICATION_CONTEXT(
  'core data for automotive mechanical design processes');
#3 = SHAPE_DEFINITION_REPRESENTATION(#4,#10);
#4 = PRODUCT_DEFINITION_SHAPE('','',#5);
#5 = PRODUCT_DEFINITION('design','',#6,#9);
#6 = PRODUCT_DEFINITION_FORMATION('','',#7);
#7 = PRODUCT('Open CASCADE STEP translator 7.9 6',
  'Open CASCADE STEP translator 7.9 6','',(#8));
#8 = PRODUCT_CONTEXT('',#2,'mechanical');
#9 = PRODUCT_DEFINITION_CONTEXT('part definition',#2,'design');
#10 = MANIFOLD_SURFACE_SHAPE_REPRESENTATION('',(#11,#15),#113);
#11 = AXIS2_PLACEMENT_3D('',#12,#13,#14);
#12 = CARTESIAN_POINT('',(0.,0.,0.));
#13 = DIRECTION('',(0.,0.,1.));
#14 = DIRECTION('',(1.,0.,-0.));
#15 = SHELL_BASED_SURFACE_MODEL('',(#16));
#16 = OPEN_SHELL('',(#17));
#17 = ADVANCED_FACE('',(#18),#31,.T.);
#18 = FACE_BOUND('',#19,.T.);
#19 = EDGE_LOOP('',(#20,#56,#78,#93));
#20 = ORIENTED_EDGE('',*,*,#21,.F.);
#21 = EDGE_CURVE('',#22,#24,#26,.T.);
#22 = VERTEX_POINT('',#23);
#23 = CARTESIAN_POINT('',(32.,0.,0.));
#24 = VERTEX_POINT('',#25);
#25 = CARTESIAN_POINT('',(46.,0.,7.));
#26 = SURFACE_CURVE('',#27,(#30),.PCURVE_S1.);
#27 = B_SPLINE_CURVE_WITH_KNOTS('',1,(#28,#29),.UNSPECIFIED.,.F.,.F.,(2,
    2),(0.,1.),.PIECEWISE_BEZIER_KNOTS.);
#28 = CARTESIAN_POINT('',(32.,0.,0.));
#29 = CARTESIAN_POINT('',(46.,0.,7.));
#30 = PCURVE('',#31,#50);
#31 = B_SPLINE_SURFACE_WITH_KNOTS('',8,1,(
    (#32,#33)
    ,(#34,#35)
    ,(#36,#37)
    ,(#38,#39)
    ,(#40,#41)
    ,(#42,#43)
    ,(#44,#45)
    ,(#46,#47)
    ,(#48,#49)),.UNSPECIFIED.,.F.,.F.,.F.,(9,9),(2,2),(0.,1.),(0.,1.),
  .PIECEWISE_BEZIER_KNOTS.);
#32 = CARTESIAN_POINT('',(32.,0.,0.));
#33 = CARTESIAN_POINT('',(46.,0.,7.));
#34 = CARTESIAN_POINT('',(34.091948056265,1.756624103481,3.399242017131)
  );
#35 = CARTESIAN_POINT('',(47.694585197813,5.689705273419,12.12929607529)
  );
#36 = CARTESIAN_POINT('',(36.047934700393,3.755791605909,6.757131246438)
  );
#37 = CARTESIAN_POINT('',(48.570964832714,11.726558795479,
    17.176499296011));
#38 = CARTESIAN_POINT('',(37.843426131742,5.975659204936,10.072590274986
    ));
#39 = CARTESIAN_POINT('',(48.521483495138,18.20134451183,21.747390352014
    ));
#40 = CARTESIAN_POINT('',(39.457795650537,8.393691007931,13.344888504786
    ));
#41 = CARTESIAN_POINT('',(47.722092469553,24.980977407938,
    25.990524122883));
#42 = CARTESIAN_POINT('',(40.874323657868,10.986658531973,
    16.573642152802));
#43 = CARTESIAN_POINT('',(45.331079159345,32.565548741714,
    28.911456499331));
#44 = CARTESIAN_POINT('',(42.080197655693,13.730640703853,
    19.758814250944));
#45 = CARTESIAN_POINT('',(41.643395139854,39.410667704896,
    30.552900997369));
#46 = CARTESIAN_POINT('',(43.066512246837,16.601023860076,
    22.900714646073));
#47 = CARTESIAN_POINT('',(36.942080010946,45.697570663681,
    31.809946010731));
#48 = CARTESIAN_POINT('',(43.828269134991,19.572501746859,26.));
#49 = CARTESIAN_POINT('',(31.401957075099,51.126481316962,33.));
#50 = DEFINITIONAL_REPRESENTATION('',(#51),#55);
#51 = LINE('',#52,#53);
#52 = CARTESIAN_POINT('',(0.,0.));
#53 = VECTOR('',#54,1.);
#54 = DIRECTION('',(0.,1.));
#55 = ( GEOMETRIC_REPRESENTATION_CONTEXT(2) 
PARAMETRIC_REPRESENTATION_CONTEXT() REPRESENTATION_CONTEXT('2D SPACE',''
  ) );
#56 = ORIENTED_EDGE('',*,*,#57,.T.);
#57 = EDGE_CURVE('',#22,#58,#60,.T.);
#58 = VERTEX_POINT('',#59);
#59 = CARTESIAN_POINT('',(43.828269134991,19.572501746859,26.));
#60 = SURFACE_CURVE('',#61,(#71),.PCURVE_S1.);
#61 = B_SPLINE_CURVE_WITH_KNOTS('',8,(#62,#63,#64,#65,#66,#67,#68,#69,
    #70),.UNSPECIFIED.,.F.,.F.,(9,9),(0.,1.),.PIECEWISE_BEZIER_KNOTS.);
#62 = CARTESIAN_POINT('',(32.,0.,0.));
#63 = CARTESIAN_POINT('',(34.091948056265,1.756624103481,3.399242017131)
  );
#64 = CARTESIAN_POINT('',(36.047934700393,3.755791605909,6.757131246438)
  );
#65 = CARTESIAN_POINT('',(37.843426131742,5.975659204936,10.072590274986
    ));
#66 = CARTESIAN_POINT('',(39.457795650537,8.393691007931,13.344888504786
    ));
#67 = CARTESIAN_POINT('',(40.874323657868,10.986658531973,
    16.573642152802));
#68 = CARTESIAN_POINT('',(42.080197655693,13.730640703853,
    19.758814250944));
#69 = CARTESIAN_POINT('',(43.066512246837,16.601023860076,
    22.900714646073));
#70 = CARTESIAN_POINT('',(43.828269134991,19.572501746859,26.));
#71 = PCURVE('',#31,#72);
#72 = DEFINITIONAL_REPRESENTATION('',(#73),#77);
#73 = LINE('',#74,#75);
#74 = CARTESIAN_POINT('',(0.,0.));
#75 = VECTOR('',#76,1.);
#76 = DIRECTION('',(1.,0.));
#77 = ( GEOMETRIC_REPRESENTATION_CONTEXT(2) 
PARAMETRIC_REPRESENTATION_CONTEXT() REPRESENTATION_CONTEXT('2D SPACE',''
  ) );
#78 = ORIENTED_EDGE('',*,*,#79,.T.);
#79 = EDGE_CURVE('',#58,#80,#82,.T.);
#80 = VERTEX_POINT('',#81);
#81 = CARTESIAN_POINT('',(31.401957075099,51.126481316962,33.));
#82 = SURFACE_CURVE('',#83,(#86),.PCURVE_S1.);
#83 = B_SPLINE_CURVE_WITH_KNOTS('',1,(#84,#85),.UNSPECIFIED.,.F.,.F.,(2,
    2),(0.,1.),.PIECEWISE_BEZIER_KNOTS.);
#84 = CARTESIAN_POINT('',(43.828269134991,19.572501746859,26.));
#85 = CARTESIAN_POINT('',(31.401957075099,51.126481316962,33.));
#86 = PCURVE('',#31,#87);
#87 = DEFINITIONAL_REPRESENTATION('',(#88),#92);
#88 = LINE('',#89,#90);
#89 = CARTESIAN_POINT('',(1.,0.));
#90 = VECTOR('',#91,1.);
#91 = DIRECTION('',(0.,1.));
#92 = ( GEOMETRIC_REPRESENTATION_CONTEXT(2) 
PARAMETRIC_REPRESENTATION_CONTEXT() REPRESENTATION_CONTEXT('2D SPACE',''
  ) );
#93 = ORIENTED_EDGE('',*,*,#94,.F.);
#94 = EDGE_CURVE('',#24,#80,#95,.T.);
#95 = SURFACE_CURVE('',#96,(#106),.PCURVE_S1.);
#96 = B_SPLINE_CURVE_WITH_KNOTS('',8,(#97,#98,#99,#100,#101,#102,#103,
    #104,#105),.UNSPECIFIED.,.F.,.F.,(9,9),(0.,1.),
  .PIECEWISE_BEZIER_KNOTS.);
#97 = CARTESIAN_POINT('',(46.,0.,7.));
#98 = CARTESIAN_POINT('',(47.694585197813,5.689705273419,12.12929607529)
  );
#99 = CARTESIAN_POINT('',(48.570964832714,11.726558795479,
    17.176499296011));
#100 = CARTESIAN_POINT('',(48.521483495138,18.20134451183,
    21.747390352014));
#101 = CARTESIAN_POINT('',(47.722092469553,24.980977407938,
    25.990524122883));
#102 = CARTESIAN_POINT('',(45.331079159345,32.565548741714,
    28.911456499331));
#103 = CARTESIAN_POINT('',(41.643395139854,39.410667704896,
    30.552900997369));
#104 = CARTESIAN_POINT('',(36.942080010946,45.697570663681,
    31.809946010731));
#105 = CARTESIAN_POINT('',(31.401957075099,51.126481316962,33.));
#106 = PCURVE('',#31,#107);
#107 = DEFINITIONAL_REPRESENTATION('',(#108),#112);
#108 = LINE('',#109,#110);
#109 = CARTESIAN_POINT('',(0.,1.));
#110 = VECTOR('',#111,1.);
#111 = DIRECTION('',(1.,0.));
#112 = ( GEOMETRIC_REPRESENTATION_CONTEXT(2) 
PARAMETRIC_REPRESENTATION_CONTEXT() REPRESENTATION_CONTEXT('2D SPACE',''
  ) );
#113 = ( GEOMETRIC_REPRESENTATION_CONTEXT(3) 
GLOBAL_UNCERTAINTY_ASSIGNED_CONTEXT((#117)) GLOBAL_UNIT_ASSIGNED_CONTEXT
((#114,#115,#116)) REPRESENTATION_CONTEXT('Context #1',
  '3D Context with UNIT and UNCERTAINTY') );
#114 = ( LENGTH_UNIT() NAMED_UNIT(*) SI_UNIT(.MILLI.,.METRE.) );
#115 = ( NAMED_UNIT(*) PLANE_ANGLE_UNIT() SI_UNIT($,.RADIAN.) );
#116 = ( NAMED_UNIT(*) SI_UNIT($,.STERADIAN.) SOLID_ANGLE_UNIT() );
#117 = UNCERTAINTY_MEASURE_WITH_UNIT(LENGTH_MEASURE(1.E-07),#114,
  'distance_accuracy_value','confusion accuracy');
#118 = PRODUCT_RELATED_PRODUCT_CATEGORY('part',$,(#7));
ENDSEC;
END-ISO-10303-21;
